<svg xmlns="http://www.w3.org/2000/svg" xmlns:xlink="http://www.w3.org/1999/xlink" width="500" zoomAndPan="magnify" viewBox="0 0 375 374.999991" height="500" preserveAspectRatio="xMidYMid meet" version="1.2"><defs><clipPath id="2c5f620d05"><path d="M 112.679688 1.019531 L 188.136719 1.019531 L 188.136719 301 L 112.679688 301 Z M 112.679688 1.019531 "/></clipPath><clipPath id="deb52cac6d"><path d="M 118.679688 1.019531 L 182.136719 1.019531 C 183.726562 1.019531 185.253906 1.652344 186.378906 2.777344 C 187.503906 3.902344 188.136719 5.429688 188.136719 7.019531 L 188.136719 294.839844 C 188.136719 296.433594 187.503906 297.960938 186.378906 299.085938 C 185.253906 300.210938 183.726562 300.839844 182.136719 300.839844 L 118.679688 300.839844 C 117.089844 300.839844 115.5625 300.210938 114.4375 299.085938 C 113.3125 297.960938 112.679688 296.433594 112.679688 294.839844 L 112.679688 7.019531 C 112.679688 5.429688 113.3125 3.902344 114.4375 2.777344 C 115.5625 1.652344 117.089844 1.019531 118.679688 1.019531 Z M 118.679688 1.019531 "/></clipPath><clipPath id="d7c7229be4"><path d="M 0.679688 0.0195312 L 76.136719 0.0195312 L 76.136719 299.921875 L 0.679688 299.921875 Z M 0.679688 0.0195312 "/></clipPath><clipPath id="5f907d908c"><path d="M 6.679688 0.0195312 L 70.136719 0.0195312 C 71.726562 0.0195312 73.253906 0.652344 74.378906 1.777344 C 75.503906 2.902344 76.136719 4.429688 76.136719 6.019531 L 76.136719 293.839844 C 76.136719 295.433594 75.503906 296.960938 74.378906 298.085938 C 73.253906 299.210938 71.726562 299.839844 70.136719 299.839844 L 6.679688 299.839844 C 5.089844 299.839844 3.5625 299.210938 2.4375 298.085938 C 1.3125 296.960938 0.679688 295.433594 0.679688 293.839844 L 0.679688 6.019531 C 0.679688 4.429688 1.3125 2.902344 2.4375 1.777344 C 3.5625 0.652344 5.089844 0.0195312 6.679688 0.0195312 Z M 6.679688 0.0195312 "/></clipPath><clipPath id="9d1a75f564"><rect x="0" width="77" y="0" height="300"/></clipPath><clipPath id="85185c4df4"><path d="M 0.5 113.203125 L 300.515625 113.203125 L 300.515625 188.648438 L 0.5 188.648438 Z M 0.5 113.203125 "/></clipPath><clipPath id="acc816c3e4"><path d="M 6.5 113.203125 L 294.316406 113.203125 C 297.628906 113.203125 300.316406 115.890625 300.316406 119.203125 L 300.316406 182.648438 C 300.316406 185.964844 297.628906 188.648438 294.316406 188.648438 L 6.5 188.648438 C 3.183594 188.648438 0.5 185.964844 0.5 182.648438 L 0.5 119.203125 C 0.5 115.890625 3.183594 113.203125 6.5 113.203125 Z M 6.5 113.203125 "/></clipPath><clipPath id="0d2d51347c"><path d="M 0.5 0.203125 L 300.441406 0.203125 L 300.441406 75.648438 L 0.5 75.648438 Z M 0.5 0.203125 "/></clipPath><clipPath id="c9ac9beaa3"><path d="M 6.5 0.203125 L 294.316406 0.203125 C 297.628906 0.203125 300.316406 2.890625 300.316406 6.203125 L 300.316406 69.648438 C 300.316406 72.964844 297.628906 75.648438 294.316406 75.648438 L 6.5 75.648438 C 3.183594 75.648438 0.5 72.964844 0.5 69.648438 L 0.5 6.203125 C 0.5 2.890625 3.183594 0.203125 6.5 0.203125 Z M 6.5 0.203125 "/></clipPath><clipPath id="b71f770fea"><rect x="0" width="301" y="0" height="76"/></clipPath><clipPath id="edb9a49e48"><path d="M 122.132812 38.582031 L 178.683594 38.582031 L 178.683594 263.460938 L 122.132812 263.460938 Z M 122.132812 38.582031 "/></clipPath><clipPath id="0e61694f70"><path d="M 128.132812 38.582031 L 172.683594 38.582031 C 175.996094 38.582031 178.683594 41.269531 178.683594 44.582031 L 178.683594 257.28125 C 178.683594 260.59375 175.996094 263.28125 172.683594 263.28125 L 128.132812 263.28125 C 124.820312 263.28125 122.132812 260.59375 122.132812 257.28125 L 122.132812 44.582031 C 122.132812 41.269531 124.820312 38.582031 128.132812 38.582031 Z M 128.132812 38.582031 "/></clipPath><clipPath id="584b66f35e"><path d="M 0.132812 0.582031 L 56.683594 0.582031 L 56.683594 225.460938 L 0.132812 225.460938 Z M 0.132812 0.582031 "/></clipPath><clipPath id="9c4fb0046d"><path d="M 6.132812 0.582031 L 50.683594 0.582031 C 53.996094 0.582031 56.683594 3.269531 56.683594 6.582031 L 56.683594 219.28125 C 56.683594 222.59375 53.996094 225.28125 50.683594 225.28125 L 6.132812 225.28125 C 2.820312 225.28125 0.132812 222.59375 0.132812 219.28125 L 0.132812 6.582031 C 0.132812 3.269531 2.820312 0.582031 6.132812 0.582031 Z M 6.132812 0.582031 "/></clipPath><clipPath id="e591d773cd"><rect x="0" width="57" y="0" height="226"/></clipPath><clipPath id="0c771c4d17"><path d="M 38.0625 122.652344 L 262.90625 122.652344 L 262.90625 179.191406 L 38.0625 179.191406 Z M 38.0625 122.652344 "/></clipPath><clipPath id="c3d4eac5c1"><path d="M 44.058594 122.652344 L 256.757812 122.652344 C 260.070312 122.652344 262.757812 125.335938 262.757812 128.648438 L 262.757812 173.195312 C 262.757812 176.507812 260.070312 179.191406 256.757812 179.191406 L 44.058594 179.191406 C 40.746094 179.191406 38.0625 176.507812 38.0625 173.195312 L 38.0625 128.648438 C 38.0625 125.335938 40.746094 122.652344 44.058594 122.652344 Z M 44.058594 122.652344 "/></clipPath><clipPath id="4e512c9779"><path d="M 0.0625 0.652344 L 224.761719 0.652344 L 224.761719 57.191406 L 0.0625 57.191406 Z M 0.0625 0.652344 "/></clipPath><clipPath id="bd583af538"><path d="M 6.058594 0.652344 L 218.757812 0.652344 C 222.070312 0.652344 224.757812 3.335938 224.757812 6.648438 L 224.757812 51.195312 C 224.757812 54.507812 222.070312 57.191406 218.757812 57.191406 L 6.058594 57.191406 C 2.746094 57.191406 0.0625 54.507812 0.0625 51.195312 L 0.0625 6.648438 C 0.0625 3.335938 2.746094 0.652344 6.058594 0.652344 Z M 6.058594 0.652344 "/></clipPath><clipPath id="3bda047cce"><rect x="0" width="225" y="0" height="58"/></clipPath><clipPath id="b2107d9cdc"><rect x="0" width="301" y="0" height="302"/></clipPath><clipPath id="50bc393bf5"><rect x="0" width="301" y="0" height="84"/></clipPath></defs><g id="c458a28415"><g transform="matrix(1,0,0,1,37,7)"><g clip-path="url(#b2107d9cdc)"><g clip-rule="nonzero" clip-path="url(#2c5f620d05)"><g clip-rule="nonzero" clip-path="url(#deb52cac6d)"><g transform="matrix(1,0,0,1,112,1)"><g id="91754ce762" clip-path="url(#9d1a75f564)"><g clip-rule="nonzero" clip-path="url(#d7c7229be4)"><g clip-rule="nonzero" clip-path="url(#5f907d908c)"><path style=" stroke:none;fill-rule:nonzero;fill:#8c93a2;fill-opacity:1;" d="M 0.679688 0.0195312 L 76.136719 0.0195312 L 76.136719 299.785156 L 0.679688 299.785156 Z M 0.679688 0.0195312 "/></g></g></g></g></g></g><g clip-rule="nonzero" clip-path="url(#85185c4df4)"><g clip-rule="nonzero" clip-path="url(#acc816c3e4)"><g transform="matrix(1,0,0,1,0,113)"><g id="2192b31c3d" clip-path="url(#b71f770fea)"><g clip-rule="nonzero" clip-path="url(#0d2d51347c)"><g clip-rule="nonzero" clip-path="url(#c9ac9beaa3)"><path style=" stroke:none;fill-rule:nonzero;fill:#8c93a2;fill-opacity:1;" d="M 0.5 75.648438 L 0.5 0.203125 L 300.21875 0.203125 L 300.21875 75.648438 Z M 0.5 75.648438 "/></g></g></g></g></g></g><g clip-rule="nonzero" clip-path="url(#edb9a49e48)"><g clip-rule="nonzero" clip-path="url(#0e61694f70)"><g transform="matrix(1,0,0,1,122,38)"><g id="625dc53c6e" clip-path="url(#e591d773cd)"><g clip-rule="nonzero" clip-path="url(#584b66f35e)"><g clip-rule="nonzero" clip-path="url(#9c4fb0046d)"><path style=" stroke:none;fill-rule:nonzero;fill:#5170ff;fill-opacity:1;" d="M 0.132812 0.582031 L 56.683594 0.582031 L 56.683594 225.238281 L 0.132812 225.238281 Z M 0.132812 0.582031 "/></g></g></g></g></g></g><g clip-rule="nonzero" clip-path="url(#0c771c4d17)"><g clip-rule="nonzero" clip-path="url(#c3d4eac5c1)"><g transform="matrix(1,0,0,1,38,122)"><g id="36a59c143f" clip-path="url(#3bda047cce)"><g clip-rule="nonzero" clip-path="url(#4e512c9779)"><g clip-rule="nonzero" clip-path="url(#bd583af538)"><path style=" stroke:none;fill-rule:nonzero;fill:#5170ff;fill-opacity:1;" d="M 0.0625 57.191406 L 0.0625 0.652344 L 224.683594 0.652344 L 224.683594 57.191406 Z M 0.0625 57.191406 "/></g></g></g></g></g></g></g></g><g transform="matrix(1,0,0,1,37,291)"><g clip-path="url(#50bc393bf5)"><g style="fill:#8c93a2;fill-opacity:1;"><g transform="translate(1.124399, 70.489221)"><path style="stroke:none" d="M 33.078125 -12.828125 C 33.078125 -10.085938 32.410156 -7.707031 31.078125 -5.6875 C 29.753906 -3.664062 27.820312 -2.109375 25.28125 -1.015625 C 22.75 0.078125 19.671875 0.625 16.046875 0.625 C 14.441406 0.625 12.875 0.519531 11.34375 0.3125 C 9.820312 0.101562 8.359375 -0.203125 6.953125 -0.609375 C 5.554688 -1.023438 4.226562 -1.535156 2.96875 -2.140625 L 2.96875 -11.25 C 5.15625 -10.28125 7.425781 -9.40625 9.78125 -8.625 C 12.144531 -7.84375 14.488281 -7.453125 16.8125 -7.453125 C 18.40625 -7.453125 19.691406 -7.660156 20.671875 -8.078125 C 21.648438 -8.503906 22.359375 -9.085938 22.796875 -9.828125 C 23.242188 -10.566406 23.46875 -11.410156 23.46875 -12.359375 C 23.46875 -13.515625 23.078125 -14.503906 22.296875 -15.328125 C 21.523438 -16.148438 20.457031 -16.914062 19.09375 -17.625 C 17.738281 -18.34375 16.207031 -19.113281 14.5 -19.9375 C 13.425781 -20.4375 12.253906 -21.050781 10.984375 -21.78125 C 9.722656 -22.507812 8.523438 -23.398438 7.390625 -24.453125 C 6.253906 -25.503906 5.320312 -26.78125 4.59375 -28.28125 C 3.863281 -29.789062 3.5 -31.597656 3.5 -33.703125 C 3.5 -36.460938 4.128906 -38.820312 5.390625 -40.78125 C 6.660156 -42.738281 8.46875 -44.238281 10.8125 -45.28125 C 13.164062 -46.332031 15.941406 -46.859375 19.140625 -46.859375 C 21.546875 -46.859375 23.835938 -46.578125 26.015625 -46.015625 C 28.191406 -45.453125 30.472656 -44.644531 32.859375 -43.59375 L 29.703125 -35.984375 C 27.566406 -36.847656 25.65625 -37.515625 23.96875 -37.984375 C 22.289062 -38.460938 20.578125 -38.703125 18.828125 -38.703125 C 17.609375 -38.703125 16.566406 -38.503906 15.703125 -38.109375 C 14.835938 -37.722656 14.179688 -37.175781 13.734375 -36.46875 C 13.296875 -35.769531 13.078125 -34.957031 13.078125 -34.03125 C 13.078125 -32.9375 13.394531 -32.015625 14.03125 -31.265625 C 14.675781 -30.515625 15.644531 -29.789062 16.9375 -29.09375 C 18.238281 -28.40625 19.859375 -27.597656 21.796875 -26.671875 C 24.160156 -25.546875 26.175781 -24.378906 27.84375 -23.171875 C 29.519531 -21.960938 30.8125 -20.539062 31.71875 -18.90625 C 32.625 -17.269531 33.078125 -15.242188 33.078125 -12.828125 Z M 33.078125 -12.828125 "/></g><g transform="translate(36.759603, 70.489221)"><path style="stroke:none" d="M 5.8125 0 L 5.8125 -46.1875 L 15.609375 -46.1875 L 15.609375 0 Z M 5.8125 0 "/></g><g transform="translate(58.178635, 70.489221)"><path style="stroke:none" d="M 25.4375 -38.703125 C 23.5625 -38.703125 21.898438 -38.335938 20.453125 -37.609375 C 19.015625 -36.878906 17.804688 -35.832031 16.828125 -34.46875 C 15.847656 -33.101562 15.101562 -31.453125 14.59375 -29.515625 C 14.09375 -27.578125 13.84375 -25.394531 13.84375 -22.96875 C 13.84375 -19.707031 14.242188 -16.921875 15.046875 -14.609375 C 15.859375 -12.304688 17.117188 -10.546875 18.828125 -9.328125 C 20.535156 -8.117188 22.738281 -7.515625 25.4375 -7.515625 C 27.3125 -7.515625 29.191406 -7.722656 31.078125 -8.140625 C 32.960938 -8.566406 35.007812 -9.171875 37.21875 -9.953125 L 37.21875 -1.734375 C 35.175781 -0.890625 33.164062 -0.285156 31.1875 0.078125 C 29.207031 0.441406 26.984375 0.625 24.515625 0.625 C 19.753906 0.625 15.84375 -0.359375 12.78125 -2.328125 C 9.71875 -4.296875 7.445312 -7.050781 5.96875 -10.59375 C 4.5 -14.144531 3.765625 -18.289062 3.765625 -23.03125 C 3.765625 -26.53125 4.238281 -29.734375 5.1875 -32.640625 C 6.132812 -35.546875 7.519531 -38.0625 9.34375 -40.1875 C 11.175781 -42.3125 13.441406 -43.953125 16.140625 -45.109375 C 18.835938 -46.273438 21.9375 -46.859375 25.4375 -46.859375 C 27.726562 -46.859375 30.023438 -46.566406 32.328125 -45.984375 C 34.640625 -45.398438 36.847656 -44.601562 38.953125 -43.59375 L 35.796875 -35.640625 C 34.066406 -36.460938 32.328125 -37.175781 30.578125 -37.78125 C 28.828125 -38.394531 27.113281 -38.703125 25.4375 -38.703125 Z M 25.4375 -38.703125 "/></g><g transform="translate(99.405533, 70.489221)"><path style="stroke:none" d="M 32.421875 0 L 5.8125 0 L 5.8125 -46.1875 L 32.421875 -46.1875 L 32.421875 -38.171875 L 15.609375 -38.171875 L 15.609375 -28.015625 L 31.25 -28.015625 L 31.25 -20 L 15.609375 -20 L 15.609375 -8.09375 L 32.421875 -8.09375 Z M 32.421875 0 "/></g><g transform="translate(135.640975, 70.489221)"><path style="stroke:none" d="M 23.34375 -25.9375 L 41.671875 -25.9375 L 41.671875 -1.984375 C 39.242188 -1.191406 36.722656 -0.554688 34.109375 -0.078125 C 31.503906 0.390625 28.550781 0.625 25.25 0.625 C 20.65625 0.625 16.753906 -0.273438 13.546875 -2.078125 C 10.347656 -3.890625 7.914062 -6.566406 6.25 -10.109375 C 4.59375 -13.648438 3.765625 -18 3.765625 -23.15625 C 3.765625 -28 4.695312 -32.191406 6.5625 -35.734375 C 8.425781 -39.273438 11.148438 -42.015625 14.734375 -43.953125 C 18.328125 -45.890625 22.710938 -46.859375 27.890625 -46.859375 C 30.335938 -46.859375 32.75 -46.59375 35.125 -46.0625 C 37.507812 -45.53125 39.671875 -44.847656 41.609375 -44.015625 L 38.359375 -36.171875 C 36.941406 -36.890625 35.328125 -37.488281 33.515625 -37.96875 C 31.703125 -38.457031 29.804688 -38.703125 27.828125 -38.703125 C 24.984375 -38.703125 22.515625 -38.046875 20.421875 -36.734375 C 18.328125 -35.429688 16.707031 -33.601562 15.5625 -31.25 C 14.414062 -28.90625 13.84375 -26.144531 13.84375 -22.96875 C 13.84375 -19.957031 14.25 -17.285156 15.0625 -14.953125 C 15.882812 -12.628906 17.179688 -10.804688 18.953125 -9.484375 C 20.722656 -8.171875 23.03125 -7.515625 25.875 -7.515625 C 27.257812 -7.515625 28.429688 -7.582031 29.390625 -7.71875 C 30.347656 -7.863281 31.25 -8.007812 32.09375 -8.15625 L 32.09375 -17.78125 L 23.34375 -17.78125 Z M 23.34375 -25.9375 "/></g><g transform="translate(182.491159, 70.489221)"><path style="stroke:none" d="M 1.921875 -13.390625 L 1.921875 -21.296875 L 18.890625 -21.296875 L 18.890625 -13.390625 Z M 1.921875 -13.390625 "/></g><g transform="translate(203.309953, 70.489221)"><path style="stroke:none" d="M 43.65625 0 L 33.90625 0 L 33.90625 -19.9375 L 15.609375 -19.9375 L 15.609375 0 L 5.8125 0 L 5.8125 -46.1875 L 15.609375 -46.1875 L 15.609375 -28.09375 L 33.90625 -28.09375 L 33.90625 -46.1875 L 43.65625 -46.1875 Z M 43.65625 0 "/></g><g transform="translate(252.813822, 70.489221)"><path style="stroke:none" d="M 23.34375 -25.9375 L 41.671875 -25.9375 L 41.671875 -1.984375 C 39.242188 -1.191406 36.722656 -0.554688 34.109375 -0.078125 C 31.503906 0.390625 28.550781 0.625 25.25 0.625 C 20.65625 0.625 16.753906 -0.273438 13.546875 -2.078125 C 10.347656 -3.890625 7.914062 -6.566406 6.25 -10.109375 C 4.59375 -13.648438 3.765625 -18 3.765625 -23.15625 C 3.765625 -28 4.695312 -32.191406 6.5625 -35.734375 C 8.425781 -39.273438 11.148438 -42.015625 14.734375 -43.953125 C 18.328125 -45.890625 22.710938 -46.859375 27.890625 -46.859375 C 30.335938 -46.859375 32.75 -46.59375 35.125 -46.0625 C 37.507812 -45.53125 39.671875 -44.847656 41.609375 -44.015625 L 38.359375 -36.171875 C 36.941406 -36.890625 35.328125 -37.488281 33.515625 -37.96875 C 31.703125 -38.457031 29.804688 -38.703125 27.828125 -38.703125 C 24.984375 -38.703125 22.515625 -38.046875 20.421875 -36.734375 C 18.328125 -35.429688 16.707031 -33.601562 15.5625 -31.25 C 14.414062 -28.90625 13.84375 -26.144531 13.84375 -22.96875 C 13.84375 -19.957031 14.25 -17.285156 15.0625 -14.953125 C 15.882812 -12.628906 17.179688 -10.804688 18.953125 -9.484375 C 20.722656 -8.171875 23.03125 -7.515625 25.875 -7.515625 C 27.257812 -7.515625 28.429688 -7.582031 29.390625 -7.71875 C 30.347656 -7.863281 31.25 -8.007812 32.09375 -8.15625 L 32.09375 -17.78125 L 23.34375 -17.78125 Z M 23.34375 -25.9375 "/></g></g></g></g></g></svg>